<svg width="512" height="512" viewBox="0 0 512 512" xmlns="http://www.w3.org/2000/svg">
  <!-- Fundo gradiente azul -->
  <defs>
    <linearGradient id="bgGradient" x1="0%" y1="0%" x2="100%" y2="100%">
      <stop offset="0%" style="stop-color:#1a237e;stop-opacity:1" />
      <stop offset="50%" style="stop-color:#1976d2;stop-opacity:1" />
      <stop offset="100%" style="stop-color:#42a5f5;stop-opacity:1" />
    </linearGradient>
    <linearGradient id="trophyGradient" x1="0%" y1="0%" x2="100%" y2="100%">
      <stop offset="0%" style="stop-color:#ffeb3b;stop-opacity:1" />
      <stop offset="100%" style="stop-color:#ffc107;stop-opacity:1" />
    </linearGradient>
    <linearGradient id="questionGradient" x1="0%" y1="0%" x2="100%" y2="100%">
      <stop offset="0%" style="stop-color:#d32f2f;stop-opacity:1" />
      <stop offset="100%" style="stop-color:#f44336;stop-opacity:1" />
    </linearGradient>
  </defs>
  
  <!-- Fundo -->
  <rect width="512" height="512" rx="80" ry="80" fill="url(#bgGradient)"/>
  
  <!-- Borda amarela -->
  <rect x="10" y="10" width="492" height="492" rx="70" ry="70" fill="none" stroke="#ffeb3b" stroke-width="8"/>
  
  <!-- Troféu -->
  <g transform="translate(256, 200)">
    <!-- Base do troféu -->
    <ellipse cx="0" cy="80" rx="40" ry="15" fill="url(#trophyGradient)" stroke="#ff9800" stroke-width="3"/>
    
    <!-- Copa do troféu -->
    <path d="M-30,-20 Q-30,-40 -10,-40 L10,-40 Q30,-40 30,-20 L30,20 Q30,40 10,40 L-10,40 Q-30,40 -30,20 Z" fill="url(#trophyGradient)" stroke="#ff9800" stroke-width="3"/>
    
    <!-- Alças -->
    <path d="M-30,-20 Q-50,-10 -50,10 Q-50,30 -30,20" fill="none" stroke="#ff9800" stroke-width="6" stroke-linecap="round"/>
    <path d="M30,-20 Q50,-10 50,10 Q50,30 30,20" fill="none" stroke="#ff9800" stroke-width="6" stroke-linecap="round"/>
    
    <!-- Estrela no topo -->
    <polygon points="0,-60 -8,-48 8,-48" fill="url(#trophyGradient)" stroke="#ff9800" stroke-width="2"/>
  </g>
  
  <!-- Pergunta -->
  <g transform="translate(256, 320)">
    <rect x="-60" y="-20" width="120" height="40" rx="20" ry="20" fill="url(#questionGradient)" stroke="#ffeb3b" stroke-width="3"/>
    <text x="0" y="5" text-anchor="middle" fill="white" font-family="Arial, sans-serif" font-size="24" font-weight="bold">?</text>
  </g>
  
  <!-- Texto QUESTORA -->
  <text x="256" y="420" text-anchor="middle" fill="#ffeb3b" font-family="Arial, sans-serif" font-size="32" font-weight="bold" text-shadow="2px 2px 4px rgba(0,0,0,0.5)">QUESTORA</text>
</svg>
